<?xml version="1.0" encoding="utf-8"?>
<!-- Generator: Adobe Illustrator 19.2.1, SVG Export Plug-In . SVG Version: 6.00 Build 0)  -->
<svg version="1.1" xmlns="http://www.w3.org/2000/svg" xmlns:xlink="http://www.w3.org/1999/xlink" x="0px" y="0px"
	 viewBox="0 0 534.9 534.9" enable-background="new 0 0 534.9 534.9" xml:space="preserve">
<g id="Layer_2">
	<circle fill="#C1272D" cx="267.4" cy="267.4" r="267.4"/>
</g>
<g id="Layer_1">
	<g>
		<g>
			<g>
				<g>
					<path fill="#FFFFFF" d="M140.7,193c10.6-4.6,22.6-9.2,34.5-14.2c11.8-5,23.5-10.5,33.4-16.6c11.8-7.4,23.9-15.2,35.5-23.6
						c11.6-8.4,22.5-17.4,32-27c0.6,0.6,0,3.2,1.9,1.9c1.9-1.3,3.3-2.4,4.4-3c1.2-0.7,2-1,2.7-1.2c1.4-0.3,2.1,0.3,2.8,0.9
						c0.7,0.6-4.7,5.1-2.5,4c-0.6,0.6-1.2,1.3-1.9,2.1c-0.7,0.7-1.4,1.4-2.1,2.1c-1.4,1.4-2.7,2.8-3.6,3.9c-1,1.1-1.6,1.9-1.7,2.2
						c-0.1,0.3,0.6,0.1,2-1c1.2-0.5,3.3-2.6,5.4-4.6c0.5-0.5,1.1-1,1.6-1.5c0.5-0.5,1-1,1.5-1.4c0.9-0.8,1.8-1.5,2.4-1.7
						c2.6-0.8,0.4,3.6,3,2.8c0.8-0.9,2.1-2.2,3.3-3.6c1.2-1.4,2.3-2.8,3.1-3.7c2.3-1.3,0.5,3.6,2.1,1.7c1.4-1.3,2.7-2.7,4.2-4.3
						c1.3-1.7,2.7-3.5,4.1-5.3c0.7-0.9,1.4-1.9,2.1-2.9c0.7-1,1.3-2,1.9-3.1c1.3-2.1,2.6-4.2,3.9-6.3c0.4,0.2,1.1-0.1,1.4,0.1
						c0.2,0.1,0.3,0.3,0.2,0.8c-0.1,0.5-0.4,1.2-1,2.4c-1.5,2.4-2.9,4.7-4.4,7.1c-1.6,2.2-3.2,4.5-4.8,6.8l-1.2,1.7
						c-0.4,0.6-0.9,1.1-1.3,1.6l-2.6,3.2l-2.6,3.2c-0.9,1.1-1.8,2.1-2.7,3.1c-7.2,8.3-15.2,15.8-23.5,22.9
						c-8.3,7.1-17.1,13.6-26.1,19.7c-9,6.1-18.3,11.7-27.7,17c-9.4,5.3-19.1,10.1-28.8,14.6c-9.8,4.5-19.6,8.8-29.6,12.6
						c-20,7.7-40.2,14.3-60.9,19.5c-2.4,0.5-3.8,0.6-4.5,0.6c-0.6-0.1-0.5-0.5,0.2-1c1.4-1,4.7-2.7,8-4.3c-2.2,1.1-2.6-0.2-4.8,0.8
						c-0.3-1.3,3.8-4.7,12.8-7.8c-2.3,0.7-4.6,1.3-6.9,2c-2.4,0.2-0.4-1.3-0.6-2.2c2.3-0.7,4.6-1.3,4.4-1.7
						c-0.1-0.4-0.4-1.3-0.5-1.7c-2.3,0.7-6.8,1.9-9.1,2.5c2.3-0.6,4.6-1.2,4.4-1.7c-0.1-0.4-0.4-1.3-0.5-1.7
						c4.4-1.7,11.4-2.9,15.8-4.7l-0.4-1.3c-4.6,1-11.2,3.4-15.8,4.7c2.1-1.1,2-1.5,1.8-2.4c6.6-2.4,13.7-3.1,20-6.6l-6.7,2.2
						C122.6,197.8,134.2,195.8,140.7,193z"/>
				</g>
			</g>
		</g>
		<g>
			<g>
				<g>
					<path fill="#FFFFFF" d="M161.4,159.8c10.3,16.1,20.6,34.7,30.3,53.6c9.8,18.9,19,38.2,27.6,55.6c10.3,20.9,19.9,43.3,27.5,66.6
						c3.8,11.7,7.2,23.6,9.7,35.6c2.5,12.1,4.4,24.3,4.9,36.6c-0.9,0-2.5-3.9-2.7,0.1c0,1-0.1,2-0.1,2.8c-0.1,0.9-0.2,1.7-0.3,2.5
						c-0.2,1.6-0.3,2.9-0.6,4c-0.5,2.3-0.9,3.8-1.4,4.7c-0.9,2-1.9,1.9-2.8,1.8c-0.2,0-0.2-0.8-0.3-1.8c0-1,0-2.4,0.1-3.6
						c0-0.6,0-1.2,0.1-1.7c0-0.5,0-0.9-0.1-1.2c-0.1-0.6-0.2-0.6-0.4,0.4c0.1-5.9-0.5-13.6-1.2-18.4c-0.8-4.8-1.3-6.7-1.1-0.9
						c-0.1,1-0.1,2.7,0,4.7c0.1,1,0.1,2.1,0.2,3.3c0,1.2,0.1,2.4,0.1,3.6c0.2,4.8,0,9.6-0.8,11.5c-0.8,1.9-1.4,0.9-2-0.1
						c-0.6-1-1.3-1.9-2-0.1c-0.1,0.9,0,2.1-0.2,3.4c-0.1,1.3-0.2,2.6-0.3,4c-0.1,1.4-0.4,2.7-0.5,4c-0.1,0.5-0.1,1-0.2,1.5
						c-0.1,0.4-0.1,0.7-0.2,1c-0.7,1-1.2,0-1.6-0.6c-0.4-0.7-0.8-1.1-1-0.4c-0.2,0.5-0.4,1-0.6,1.5c-0.2,0.5-0.4,1-0.6,1.5
						c-0.2,0.5-0.4,1-0.6,1.5c-0.5-0.3-1-0.7-1.5-1c-1.1-0.7-2.3-1.5-3.5-2.2c-3.2-2-6.4-4.1-9.6-6.2c0.5-0.8-2.2-3.6,4.4,0.2
						l5.3,3.4l1.3,0.8l0.3,0.2l0.1,0.1l0.4,0.2l0.7,0.4l0.4,0.2l0.2,0.1c0,0,0,0,0.1,0l0-0.1c0.2-0.6,0.3-1.1,0.3-1.7l0-0.2l0-0.3
						l0.4-2.8c0.3-1.9,0.3-3.8,0.5-5.7c0.5-7.7,0.1-15.7-0.8-23.6c-0.9-8-2.3-16-4.1-23.9c-3.6-16-8.5-31.8-14.1-47.5
						c-5.7-15.7-12.1-31.1-19-46.4c-13.8-30.6-29.4-60.5-45.8-89.9c-16.5-29.3-33.8-58.1-51.7-86.1c-2-3.2-3-5.1-3.3-5.9
						c-0.3-0.9,0.2-0.7,1.1,0c1.9,1.5,5.7,5.9,9.4,10.3c-2.5-2.9-1.3-3.7-3.8-6.6c1.1-0.8,7.3,4.3,15.9,17c-2.1-3.2-4.1-6.4-6.2-9.7
						c-1.7-3.5,1.1-0.7,1.9-1.2c2.1,3.2,4.1,6.5,4.5,6.2c0.4-0.2,1.1-0.7,1.5-1c-2.1-3.2-6.2-9.7-8.3-12.9c2.1,3.2,4.2,6.4,4.6,6.2
						c0.4-0.2,1.1-0.7,1.5-1c4.6,6.2,9.9,16.5,14.4,22.8l1.2-0.7c-3.7-6.8-10.2-16.3-14.4-22.8c2.5,3,2.8,2.8,3.6,2.3
						c6.6,9.5,11.6,20,18.7,29.2l-6-9.9C146.8,132.6,155.2,150.1,161.4,159.8z"/>
				</g>
			</g>
		</g>
		<g>
			<g>
				<g>
					<path fill="#FFFFFF" d="M378.9,272.8c-8.1-9-16.8-18.3-26.3-27.2c-9.6-8.8-20-17.3-31-24.9c-11-7.6-22.6-14.3-34.5-19.8
						c-1.5-0.7-3-1.3-4.5-2c-1.5-0.6-3-1.3-4.5-1.9c-3-1.2-5.9-2.4-8.9-3.4c-5.9-2.1-11.9-3.8-17.7-5.2c-2.2-0.5-4.3-1-6.5-1.4
						l-1.6-0.3c-0.2,0-0.2,0-0.3,0l-0.1,0l-0.5,0c-0.3,0-0.6,0-0.8,0l-0.3,0l-0.2,0l-0.1,0l0.1,0.1l0.5,1.1l0.2,0.4l0.1,0.1l0,0
						c0,0,0,0,0,0l0.1,0.3l0.7,2.4c1.9,6.3,3.7,12.7,5.5,19.1c3.6,12.8,7,25.7,10.3,38.6c6.5,25.8,12.5,51.7,17.4,77
						c-0.9,0.2-3.2-4.5-2.7,0.5c2.5,20.2,0.5,20.5-1.3,20.8c-0.8,0.1-2.7-14.9-2.7-9.8c-2.7-14.9-8.4-39.4-6.2-24.4
						c0,2.6,1.4,8.7,2.5,14.9c1.2,6.2,2.1,12.4,1.9,15c-0.5,5.2-3.6-4.4-4,0.7c0.4,2.5,1.1,6.2,1.7,9.9c0.6,3.7,1.2,7.4,1.6,9.9
						c-0.1,2.5-1,1.4-1.7,0.2c-0.8-1.1-1.4-2.3-1,0.2c0.6,7.4,1.7,16,2.5,25.2c0.8,9.1,1.5,18.9,0.9,28.2c-0.5,0-1,1.2-1.4,1.2
						c-0.2,0-0.4-0.3-0.5-1.3c-0.1-0.9-0.2-2.3-0.2-4.6c0.2-9.3-0.6-19-1.7-28.8c-1.1-9.7-2.6-19.6-4.3-29.4
						c-1.7-9.8-3.6-19.6-5.6-29.5c-2-9.8-4.2-19.6-6.4-29.5c-4.5-19.6-9.4-39.2-14.6-58.8c-2.6-9.8-5.2-19.6-7.9-29.3l-4.5-16.1
						c-2.7-9.6-5.6-19.4-8.4-29.2l2,0.1l2.1,0.1l4,0.3c2.7,0.2,5.4,0.3,8.1,0.6l2,0.2c0.7,0.1,1.4,0.2,2.1,0.3l4.3,0.6
						c1.4,0.2,2.9,0.5,4.4,0.7l4.4,0.8c0.7,0.1,1.5,0.3,2.1,0.4l1.3,0.3l2.3,0.5c1.6,0.3,3.1,0.8,4.7,1.2c3.1,0.8,6.1,1.7,9.2,2.6
						c12.2,3.8,24,8.5,35.4,14c11.4,5.5,22.4,11.9,32.8,19c10.4,7.1,20.4,14.9,29.7,23.3c1.2,1,2.4,2.1,3.5,3.1l3.4,3.3l3.4,3.3
						c1.1,1.1,2.3,2.2,3.3,3.3l6.5,6.8l1.6,1.7l1.5,1.8l3.1,3.6l3.1,3.6l1.5,1.8l1.5,1.8l5.8,7.4l1.4,1.8c0.5,0.6,0.9,1.3,1.4,1.9
						l2.7,3.8c1.8,2.5,3.7,5,5.4,7.6c13.9,20.6,25.6,42.5,35.2,65c7.8,19.1,0,5.5-7.5-7.9c2.6,4.5,1.2,5,3.7,9.5
						c-0.6,0.3-2.5-1.7-5.2-6c-1.4-2.2-3.2-4.8-5.1-8.1c-1-1.6-2-3.4-3.1-5.4c-0.5-1-1.1-2-1.7-3c-0.6-1-1.2-2.1-1.8-3.2l1.8,3.3
						c0.6,1.1,1.1,2.3,1.7,3.4c1.1,2.3,2.2,4.5,3.3,6.8c1.8,4.7-1.2,0.6-2,1c-2.2-4.5-4.4-9.1-4.8-8.8c-0.4,0.2-1.2,0.6-1.6,0.8
						c1.1,2.2,2.7,5.6,4.4,9c0.8,1.7,1.6,3.4,2.4,4.9c0.7,1.5,1.3,3,1.8,4.1c-0.5-1.1-1-2.3-1.5-3.4c-0.5-1.1-1-2-1.4-2.9
						c-0.9-1.7-1.5-2.7-1.7-2.6c-0.4,0.2-1.2,0.6-1.6,0.8c-1.2-2.2-2.4-4.7-3.7-7.4c-0.3-0.7-0.6-1.3-1-2c-0.3-0.7-0.7-1.3-1.1-2
						c-0.7-1.4-1.4-2.7-2.1-4.1c-1.4-2.8-2.9-5.5-4.2-8.1c-1.5-2.6-3-4.9-4.3-7l-1.2,0.7c1.2,2.2,2.6,4.6,4,7.1
						c1.4,2.6,2.9,5.3,4.4,8c0.8,1.4,1.5,2.7,2.2,4c0.4,0.7,0.7,1.3,1.1,2c0.3,0.7,0.7,1.3,1,2c1.3,2.6,2.6,5.1,3.7,7.4
						c-2.6-4.3-3-4.1-3.8-3.7c-0.9-1.6-1.7-3.3-2.5-5l-2.6-4.9c-1.7-3.3-3.4-6.6-5.1-9.8c-3.7-6.4-7.4-12.8-12.1-18.5l4,6.2l3.8,6.3
						c-0.9-0.9-1.8-2-2.8-3.4c-1-1.3-2-2.8-3.2-4.4c-2.3-3.2-4.7-6.9-7.2-10.7c-2.6-3.8-5.3-7.7-7.9-11.4
						C383.9,279,381.3,275.6,378.9,272.8z"/>
				</g>
			</g>
		</g>
		<g>
			<g>
				<g>
					<path fill="#FFFFFF" d="M286.4,268.4c8-4.5,17.1-8.8,26.2-13.4c9.1-4.5,18.1-9.2,25.7-14.4c9-6.3,18.4-12.7,27.4-19.3
						c9-6.7,17.6-13.6,24.6-20.9c0.7,0.6,0.5,2.8,2,1.9c0.7-0.5,1.4-0.9,1.9-1.3c0.6-0.4,1.1-0.7,1.5-0.9c0.9-0.5,1.7-0.7,2.3-0.8
						c1.2-0.1,1.9,0.4,2.6,1c0.3,0.3-0.5,1.3-1.2,2.2c-0.7,0.8-1.3,1.5-0.4,1.1c-3.5,4.1-10,10.7-5.4,7.5c1-0.3,2.6-1.9,4.3-3.6
						c1.6-1.6,3.2-3.3,4.4-3.6c1.1-0.3,1.3,0.5,1.6,1.3c0.2,0.8,0.4,1.6,1.6,1.3c0.6-0.8,1.6-1.9,2.5-3c0.9-1.2,1.8-2.3,2.3-3.2
						c1.9-1.1,1.1,3.2,2.2,1.6c2.2-2.3,4.2-5.4,5.9-9.1c1.7-3.7,3-8.2,3.5-12.9c0.5,0,0.9-0.4,1.3-0.3c0.2,0,0.4,0.2,0.5,0.5
						c0.1,0.5,0.1,1.3,0.1,2.5c-0.8,5.5-2.8,10.3-5,14.6c-2.3,4.3-5,8.2-7.8,11.8c-5.7,7.2-12.1,13.3-18.7,18.9
						c-13.3,11.3-27.5,20.7-42,29.5c-14.5,8.7-29.4,16.6-44.5,23.9c-15.1,7.3-30.3,13.9-45.8,19.9c-1.8,0.6-2.9,0.8-3.4,0.8
						c-0.5-0.1-0.5-0.4,0-1c0.9-1.1,3.2-2.9,5.6-4.6c-1.6,1.1-2.1-0.1-3.7,1c-0.5-1.3,2.1-4.8,8.8-8.1c-1.7,0.7-3.4,1.5-5.2,2.2
						c-1.9,0.3-0.5-1.3-0.9-2.1c1.7-0.7,3.4-1.5,3.3-1.9c-0.2-0.4-0.5-1.3-0.7-1.7c-1.7,0.7-5.1,2.2-6.9,2.9
						c1.7-0.7,3.4-1.4,3.3-1.8c-0.2-0.4-0.5-1.3-0.7-1.7c3.2-1.8,8.7-3.2,11.9-5.1l-0.5-1.2c-3.6,1.1-8.5,3.7-11.9,5.1
						c1.5-1.1,1.4-1.6,1-2.4c4.9-2.6,10.6-3.5,15.1-7l-5.1,2.2C272.5,273.3,281.6,271.2,286.4,268.4z"/>
				</g>
			</g>
		</g>
	</g>
</g>
<g id="Layer_3" display="none">
	<g display="inline">
		<g>
			<g>
				<g>
					<path fill="#FFFFFF" d="M136.7,201c10.6-4.6,22.6-9.2,34.5-14.2c11.8-5,23.5-10.5,33.4-16.6c11.8-7.4,23.9-15.2,35.5-23.6
						c11.6-8.4,22.5-17.4,32-27c0.6,0.6,0,3.2,1.9,1.9c1.9-1.3,3.3-2.4,4.4-3c1.2-0.7,2-1,2.7-1.2c1.4-0.3,2.1,0.3,2.8,0.9
						c0.7,0.6-4.7,5.1-2.5,4c-0.6,0.6-1.2,1.3-1.9,2.1c-0.7,0.7-1.4,1.4-2.1,2.1c-1.4,1.4-2.7,2.8-3.6,3.9c-1,1.1-1.6,1.9-1.7,2.2
						c-0.1,0.3,0.6,0.1,2-1c1.2-0.5,3.3-2.6,5.4-4.6c0.5-0.5,1.1-1,1.6-1.5c0.5-0.5,1-1,1.5-1.4c0.9-0.8,1.8-1.5,2.4-1.7
						c2.6-0.8,0.4,3.6,3,2.8c0.8-0.9,2.1-2.2,3.3-3.6c1.2-1.4,2.3-2.8,3.1-3.7c2.3-1.3,0.5,3.6,2.1,1.7c1.4-1.3,2.7-2.7,4.2-4.3
						c1.3-1.7,2.7-3.5,4.1-5.3c0.7-0.9,1.4-1.9,2.1-2.9c0.7-1,1.3-2,1.9-3.1c1.3-2.1,2.6-4.2,3.9-6.3c0.4,0.2,1.1-0.1,1.4,0.1
						c0.2,0.1,0.3,0.3,0.2,0.8c-0.1,0.5-0.4,1.2-1,2.4c-1.5,2.4-2.9,4.7-4.4,7.1c-1.6,2.2-3.2,4.5-4.8,6.8l-1.2,1.7
						c-0.4,0.6-0.9,1.1-1.3,1.6l-2.6,3.2l-2.6,3.2c-0.9,1.1-1.8,2.1-2.7,3.1c-7.2,8.3-15.2,15.8-23.5,22.9
						c-8.3,7.1-17.1,13.6-26.1,19.7c-9,6.1-18.3,11.7-27.7,17c-9.4,5.3-19.1,10.1-28.8,14.6c-9.8,4.5-19.6,8.8-29.6,12.6
						c-20,7.7-40.2,14.3-60.9,19.5c-2.4,0.5-3.8,0.6-4.5,0.6c-0.6-0.1-0.5-0.5,0.2-1c1.4-1,4.7-2.7,8-4.3c-2.2,1.1-2.6-0.2-4.8,0.8
						c-0.3-1.3,3.8-4.7,12.8-7.8c-2.3,0.7-4.6,1.3-6.9,2c-2.4,0.2-0.4-1.3-0.6-2.2c2.3-0.7,4.6-1.3,4.4-1.7
						c-0.1-0.4-0.4-1.3-0.5-1.7c-2.3,0.7-6.8,1.9-9.1,2.5c2.3-0.6,4.6-1.2,4.4-1.7c-0.1-0.4-0.4-1.3-0.5-1.7
						c4.4-1.7,11.4-2.9,15.8-4.7l-0.4-1.3c-4.6,1-11.2,3.4-15.8,4.7c2.1-1.1,2-1.5,1.8-2.4c6.6-2.4,13.7-3.1,20-6.6l-6.7,2.2
						C118.6,205.8,130.2,203.8,136.7,201z"/>
				</g>
			</g>
		</g>
		<g>
			<g>
				<g>
					<path fill="#FFFFFF" d="M157.4,167.8c10.3,16.1,20.6,34.7,30.3,53.6c9.8,18.9,19,38.2,27.6,55.6c10.3,20.9,19.9,43.3,27.5,66.6
						c3.8,11.7,7.2,23.6,9.7,35.6c2.5,12.1,4.4,24.3,4.9,36.6c-0.9,0-2.5-3.9-2.7,0.1c0,1-0.1,2-0.1,2.8c-0.1,0.9-0.2,1.7-0.3,2.5
						c-0.2,1.6-0.3,2.9-0.6,4c-0.5,2.3-0.9,3.8-1.4,4.7c-0.9,2-1.9,1.9-2.8,1.8c-0.2,0-0.2-0.8-0.3-1.8c0-1,0-2.4,0.1-3.6
						c0-0.6,0-1.2,0.1-1.7c0-0.5,0-0.9-0.1-1.2c-0.1-0.6-0.2-0.6-0.4,0.4c0.1-5.9-0.5-13.6-1.2-18.4c-0.8-4.8-1.3-6.7-1.1-0.9
						c-0.1,1-0.1,2.7,0,4.7c0.1,1,0.1,2.1,0.2,3.3c0,1.2,0.1,2.4,0.1,3.6c0.2,4.8,0,9.6-0.8,11.5c-0.8,1.9-1.4,0.9-2-0.1
						c-0.6-1-1.3-1.9-2-0.1c-0.1,0.9,0,2.1-0.2,3.4c-0.1,1.3-0.2,2.6-0.3,4c-0.1,1.4-0.4,2.7-0.5,4c-0.1,0.5-0.1,1-0.2,1.5
						c-0.1,0.4-0.1,0.7-0.2,1c-0.7,1-1.2,0-1.6-0.6c-0.4-0.7-0.8-1.1-1-0.4c-0.2,0.5-0.4,1-0.6,1.5c-0.2,0.5-0.4,1-0.6,1.5
						c-0.2,0.5-0.4,1-0.6,1.5c-0.5-0.3-1-0.7-1.5-1c-1.1-0.7-2.3-1.5-3.5-2.2c-3.2-2-6.4-4.1-9.6-6.2c0.5-0.8-2.2-3.6,4.4,0.2
						l5.3,3.4l1.3,0.8l0.3,0.2l0.1,0.1l0.4,0.2l0.7,0.4l0.4,0.2l0.2,0.1c0,0,0,0,0.1,0l0-0.1c0.2-0.6,0.3-1.1,0.3-1.7l0-0.2l0-0.3
						l0.4-2.8c0.3-1.9,0.3-3.8,0.5-5.7c0.5-7.7,0.1-15.7-0.8-23.6c-0.9-8-2.3-16-4.1-23.9c-3.6-16-8.5-31.8-14.1-47.5
						c-5.7-15.7-12.1-31.1-19-46.4c-13.8-30.6-29.4-60.5-45.8-89.9c-16.5-29.3-33.8-58.1-51.7-86.1c-2-3.2-3-5.1-3.3-5.9
						c-0.3-0.9,0.2-0.7,1.1,0c1.9,1.5,5.7,5.9,9.4,10.3c-2.5-2.9-1.3-3.7-3.8-6.6c1.1-0.8,7.3,4.3,15.9,17c-2.1-3.2-4.1-6.4-6.2-9.7
						c-1.7-3.5,1.1-0.7,1.9-1.2c2.1,3.2,4.1,6.5,4.5,6.2c0.4-0.2,1.1-0.7,1.5-1c-2.1-3.2-6.2-9.7-8.3-12.9c2.1,3.2,4.2,6.4,4.6,6.2
						c0.4-0.2,1.1-0.7,1.5-1c4.6,6.2,9.9,16.5,14.4,22.8l1.2-0.7c-3.7-6.8-10.2-16.3-14.4-22.8c2.5,3,2.8,2.8,3.6,2.3
						c6.6,9.5,11.6,20,18.7,29.2l-6-9.9C142.8,140.6,151.2,158.1,157.4,167.8z"/>
				</g>
			</g>
		</g>
		<g>
			<g>
				<g>
					<path fill="#FFFFFF" d="M363.9,284.8c-8.1-9-16.8-18.3-26.3-27.2c-9.6-8.8-20-17.3-31-24.9c-11-7.6-22.6-14.3-34.5-19.8
						c-1.5-0.7-3-1.3-4.5-2c-1.5-0.6-3-1.3-4.5-1.9c-3-1.2-5.9-2.4-8.9-3.4c-5.9-2.1-11.9-3.8-17.7-5.2c-2.2-0.5-4.3-1-6.5-1.4
						l-1.6-0.3c-0.2,0-0.2,0-0.3,0l-0.1,0l-0.5,0c-0.3,0-0.6,0-0.8,0l-0.3,0l-0.2,0l-0.1,0l0.1,0.1l0.5,1.1l0.2,0.4l0.1,0.1l0,0
						c0,0,0,0,0,0l0.1,0.3l0.7,2.4c1.9,6.3,3.7,12.7,5.5,19.1c3.6,12.8,7,25.7,10.3,38.6c6.5,25.8,12.5,51.7,17.4,77
						c-0.9,0.2-3.2-4.5-2.7,0.5c2.5,20.2,0.5,20.5-1.3,20.8c-0.8,0.1-2.7-14.9-2.7-9.8c-2.7-14.9-8.4-39.4-6.2-24.4
						c0,2.6,1.4,8.7,2.5,14.9c1.2,6.2,2.1,12.4,1.9,15c-0.5,5.2-3.6-4.4-4,0.7c0.4,2.5,1.1,6.2,1.7,9.9c0.6,3.7,1.2,7.4,1.6,9.9
						c-0.1,2.5-1,1.4-1.7,0.2c-0.8-1.1-1.4-2.3-1,0.2c0.6,7.4,1.7,16,2.5,25.2c0.8,9.1,1.5,18.9,0.9,28.2c-0.5,0-1,1.2-1.4,1.2
						c-0.2,0-0.4-0.3-0.5-1.3c-0.1-0.9-0.2-2.3-0.2-4.6c0.2-9.3-0.6-19-1.7-28.8c-1.1-9.7-2.6-19.6-4.3-29.4
						c-1.7-9.8-3.6-19.6-5.6-29.5c-2-9.8-4.2-19.6-6.4-29.5c-4.5-19.6-9.4-39.2-14.6-58.8c-2.6-9.8-5.2-19.6-7.9-29.3l-4.5-16.1
						c-2.7-9.6-5.6-19.4-8.4-29.2l2,0.1l2.1,0.1l4,0.3c2.7,0.2,5.4,0.3,8.1,0.6l2,0.2c0.7,0.1,1.4,0.2,2.1,0.3l4.3,0.6
						c1.4,0.2,2.9,0.5,4.4,0.7l4.4,0.8c0.7,0.1,1.5,0.3,2.1,0.4l1.3,0.3l2.3,0.5c1.6,0.3,3.1,0.8,4.7,1.2c3.1,0.8,6.1,1.7,9.2,2.6
						c12.2,3.8,24,8.5,35.4,14c11.4,5.5,22.4,11.9,32.8,19c10.4,7.1,20.4,14.9,29.7,23.3c1.2,1,2.4,2.1,3.5,3.1l3.4,3.3l3.4,3.3
						c1.1,1.1,2.3,2.2,3.3,3.3l6.5,6.8l1.6,1.7l1.5,1.8l3.1,3.6l3.1,3.6l1.5,1.8l1.5,1.8l5.8,7.4l1.4,1.8c0.5,0.6,0.9,1.3,1.4,1.9
						l2.7,3.8c1.8,2.5,3.7,5,5.4,7.6c13.9,20.6,25.6,42.5,35.2,65c7.8,19.1,0,5.5-7.5-7.9c2.6,4.5,1.2,5,3.7,9.5
						c-0.6,0.3-2.5-1.7-5.2-6c-1.4-2.2-3.2-4.8-5.1-8.1c-1-1.6-2-3.4-3.1-5.4c-0.5-1-1.1-2-1.7-3c-0.6-1-1.2-2.1-1.8-3.2l1.8,3.3
						c0.6,1.1,1.1,2.3,1.7,3.4c1.1,2.3,2.2,4.5,3.3,6.8c1.8,4.7-1.2,0.6-2,1c-2.2-4.5-4.4-9.1-4.8-8.8c-0.4,0.2-1.2,0.6-1.6,0.8
						c1.1,2.2,2.7,5.6,4.4,9c0.8,1.7,1.6,3.4,2.4,4.9c0.7,1.5,1.3,3,1.8,4.1c-0.5-1.1-1-2.3-1.5-3.4c-0.5-1.1-1-2-1.4-2.9
						c-0.9-1.7-1.5-2.7-1.7-2.6c-0.4,0.2-1.2,0.6-1.6,0.8c-1.2-2.2-2.4-4.7-3.7-7.4c-0.3-0.7-0.6-1.3-1-2c-0.3-0.7-0.7-1.3-1.1-2
						c-0.7-1.4-1.4-2.7-2.1-4.1c-1.4-2.8-2.9-5.5-4.2-8.1c-1.5-2.6-3-4.9-4.3-7l-1.2,0.7c1.2,2.2,2.6,4.6,4,7.1
						c1.4,2.6,2.9,5.3,4.4,8c0.8,1.4,1.5,2.7,2.2,4c0.4,0.7,0.7,1.3,1.1,2c0.3,0.7,0.7,1.3,1,2c1.3,2.6,2.6,5.1,3.7,7.4
						c-2.6-4.3-3-4.1-3.8-3.7c-0.9-1.6-1.7-3.3-2.5-5l-2.6-4.9c-1.7-3.3-3.4-6.6-5.1-9.8c-3.7-6.4-7.4-12.8-12.1-18.5l4,6.2l3.8,6.3
						c-0.9-0.9-1.8-2-2.8-3.4c-1-1.3-2-2.8-3.2-4.4c-2.3-3.2-4.7-6.9-7.2-10.7c-2.6-3.8-5.3-7.7-7.9-11.4
						C368.9,291,366.3,287.6,363.9,284.8z"/>
				</g>
			</g>
		</g>
		<g>
			<g>
				<g>
					<path fill="#FFFFFF" d="M271.4,280.4c8-4.5,17.1-8.8,26.2-13.4c9.1-4.5,18.1-9.2,25.7-14.4c9-6.3,18.4-12.7,27.4-19.3
						c9-6.7,17.6-13.6,24.6-20.9c0.7,0.6,0.5,2.8,2,1.9c0.7-0.5,1.4-0.9,1.9-1.3c0.6-0.4,1.1-0.7,1.5-0.9c0.9-0.5,1.7-0.7,2.3-0.8
						c1.2-0.1,1.9,0.4,2.6,1c0.3,0.3-0.5,1.3-1.2,2.2c-0.7,0.8-1.3,1.5-0.4,1.1c-3.5,4.1-10,10.7-5.4,7.5c1-0.3,2.6-1.9,4.3-3.6
						c1.6-1.6,3.2-3.3,4.4-3.6c1.1-0.3,1.3,0.5,1.6,1.3c0.2,0.8,0.4,1.6,1.6,1.3c0.6-0.8,1.6-1.9,2.5-3c0.9-1.2,1.8-2.3,2.3-3.2
						c1.9-1.1,1.1,3.2,2.2,1.6c2.2-2.3,4.2-5.4,5.9-9.1c1.7-3.7,3-8.2,3.5-12.9c0.5,0,0.9-0.4,1.3-0.3c0.2,0,0.4,0.2,0.5,0.5
						c0.1,0.5,0.1,1.3,0.1,2.5c-0.8,5.5-2.8,10.3-5,14.6c-2.3,4.3-5,8.2-7.8,11.8c-5.7,7.2-12.1,13.3-18.7,18.9
						c-13.3,11.3-27.5,20.7-42,29.5c-14.5,8.7-29.4,16.6-44.5,23.9c-15.1,7.3-30.3,13.9-45.8,19.9c-1.8,0.6-2.9,0.8-3.4,0.8
						c-0.5-0.1-0.5-0.4,0-1c0.9-1.1,3.2-2.9,5.6-4.6c-1.6,1.1-2.1-0.1-3.7,1c-0.5-1.3,2.1-4.8,8.8-8.1c-1.7,0.7-3.4,1.5-5.2,2.2
						c-1.9,0.3-0.5-1.3-0.9-2.1c1.7-0.7,3.4-1.5,3.3-1.9c-0.2-0.4-0.5-1.3-0.7-1.7c-1.7,0.7-5.1,2.2-6.9,2.9
						c1.7-0.7,3.4-1.4,3.3-1.8c-0.2-0.4-0.5-1.3-0.7-1.7c3.2-1.8,8.7-3.2,11.9-5.1l-0.5-1.2c-3.6,1.1-8.5,3.7-11.9,5.1
						c1.5-1.1,1.4-1.6,1-2.4c4.9-2.6,10.6-3.5,15.1-7l-5.1,2.2C257.5,285.3,266.6,283.2,271.4,280.4z"/>
				</g>
			</g>
		</g>
	</g>
</g>
</svg>
